<?xml version="1.0" encoding="UTF-8" standalone="no"?>
<!-- Generator: Adobe Illustrator 19.0.0, SVG Export Plug-In . SVG Version: 6.00 Build 0)  -->

<svg
   version="1.1"
   id="Layer_1"
   x="0px"
   y="0px"
   viewBox="0 0 512 512"
   style="enable-background:new 0 0 512 512;"
   xml:space="preserve"
   sodipodi:docname="robot_clicked.svg"
   inkscape:version="1.1.1 (3bf5ae0d25, 2021-09-20, custom)"
   xmlns:inkscape="http://www.inkscape.org/namespaces/inkscape"
   xmlns:sodipodi="http://sodipodi.sourceforge.net/DTD/sodipodi-0.dtd"
   xmlns="http://www.w3.org/2000/svg"
   xmlns:svg="http://www.w3.org/2000/svg"><defs
   id="defs59" /><sodipodi:namedview
   id="namedview57"
   pagecolor="#505050"
   bordercolor="#ffffff"
   borderopacity="1"
   inkscape:pageshadow="0"
   inkscape:pageopacity="0"
   inkscape:pagecheckerboard="1"
   showgrid="false"
   inkscape:zoom="1.2578125"
   inkscape:cx="122.03727"
   inkscape:cy="255.60248"
   inkscape:window-width="1920"
   inkscape:window-height="1024"
   inkscape:window-x="0"
   inkscape:window-y="0"
   inkscape:window-maximized="1"
   inkscape:current-layer="Layer_1" />
<path
   style="fill:#93C7EF;"
   d="M302.545,69.818c0-25.707-20.84-46.545-46.545-46.545s-46.545,20.838-46.545,46.545  c0,17.225,9.365,32.254,23.273,40.304v83.818h46.545v-83.818C293.181,102.073,302.545,87.043,302.545,69.818z"
   id="path2" />
<path
   style="fill:#5A8BB0;"
   d="M256,23.273v170.667h23.273v-83.818c13.908-8.049,23.273-23.077,23.273-40.304  C302.545,44.111,281.705,23.273,256,23.273z"
   id="path4" />
<rect
   y="240.485"
   style="fill:#93C7EF;"
   width="248.242"
   height="124.121"
   id="rect6" />
<rect
   x="263.758"
   y="240.485"
   style="fill:#5A8BB0;"
   width="248.242"
   height="124.121"
   id="rect8" />
<rect
   x="186.182"
   y="364.606"
   style="fill:#93C7EF;"
   width="139.636"
   height="124.121"
   id="rect10" />
<rect
   x="256"
   y="364.606"
   style="fill:#5A8BB0;"
   width="69.818"
   height="124.121"
   id="rect12" />
<rect
   x="46.545"
   y="162.909"
   style="fill:#CCE9F9;"
   width="418.909"
   height="279.273"
   id="rect14" />
<rect
   x="256"
   y="162.909"
   style="fill:#93C7EF;"
   width="209.455"
   height="279.273"
   id="rect16" />
<path
   style="fill:#3C5D76;"
   d="M193.939,271.515c0,17.138-13.894,31.03-31.03,31.03l0,0c-17.136,0-31.03-13.892-31.03-31.03l0,0  c0-17.138,13.894-31.03,31.03-31.03l0,0C180.046,240.485,193.939,254.377,193.939,271.515L193.939,271.515z"
   id="path18" />
<path
   style="fill:#1E2E3B;"
   d="M380.121,271.515c0,17.138-13.894,31.03-31.03,31.03l0,0c-17.137,0-31.03-13.892-31.03-31.03l0,0  c0-17.138,13.894-31.03,31.03-31.03l0,0C366.227,240.485,380.121,254.377,380.121,271.515L380.121,271.515z"
   id="path20" />
<path
   style="fill:#3C5D76;"
   d="M186.182,349.091c0,38.558,31.258,69.818,69.818,69.818l0,0c38.558,0,69.818-31.26,69.818-69.818  H186.182z"
   id="path22" />
<path
   style="fill:#1E2E3B;"
   d="M256,349.091c0,38.558,0,46.545,0,69.818l0,0c38.558,0,69.818-31.26,69.818-69.818H256z"
   id="path24" />
<g
   id="g26">
</g>
<g
   id="g28">
</g>
<g
   id="g30">
</g>
<g
   id="g32">
</g>
<g
   id="g34">
</g>
<g
   id="g36">
</g>
<g
   id="g38">
</g>
<g
   id="g40">
</g>
<g
   id="g42">
</g>
<g
   id="g44">
</g>
<g
   id="g46">
</g>
<g
   id="g48">
</g>
<g
   id="g50">
</g>
<g
   id="g52">
</g>
<g
   id="g54">
</g>
<path
   id="path61"
   style="fill:#9bff83;fill-opacity:1"
   d="m 348.33789,254.50391 c -7.66663,0.22263 -14.75532,6.31092 -15.99459,13.90664 -1.1631,6.1618 1.33718,12.92104 6.42944,16.6454 4.57449,3.5318 10.99147,4.49964 16.37886,2.37709 5.2855,-1.99403 9.47169,-6.74107 10.57544,-12.30907 1.24246,-5.58526 -0.52307,-11.76435 -4.68096,-15.72872 -3.33541,-3.25925 -8.02892,-5.15795 -12.70819,-4.89134 z" /><path
   id="path1319"
   style="fill:#9bff83;fill-opacity:1"
   d="m 162.28125,252.49609 c -8.3906,0.17365 -16.27871,6.58567 -17.93678,14.85369 -1.36327,6.02848 0.36328,12.71321 4.68981,17.17089 4.04885,4.39863 10.25676,6.64458 16.18351,5.88367 2.22634,-0.27704 4.40213,-0.94882 6.3994,-1.97075 0.29497,-0.14472 0.96221,-0.5169 1.38672,-0.78125 6.59855,-4.0179 10.23867,-12.36213 8.54005,-19.92182 -1.10012,-5.68305 -4.97268,-10.73671 -10.19184,-13.25005 -2.79989,-1.39364 -5.94344,-2.09146 -9.07087,-1.98438 z" /></svg>
